<svg id="Layer_1" data-name="Layer 1" xmlns="http://www.w3.org/2000/svg" viewBox="0 0 490.65 384.28"><defs><style>.cls-1{fill:#fff;}</style></defs><title>Five_Minute_Logo</title><path class="cls-1" d="M221.6,128.53V70.25l-28.48,45.08h-4.51L160,70.25v58.28h-7.59v-71h7.81l30.57,48.58,30.57-48.58h7.81v71Z"/><path class="cls-1" d="M247.11,65.55v-10h7.48v10Zm0,63V76.44h7.48v52.08Z"/><path class="cls-1" d="M318.81,128.53h-7.48V99.44q0-9.3-3-13.5t-9.24-4.2a20.77,20.77,0,0,0-6.6,1.1,23.9,23.9,0,0,0-6.16,3.1,23.09,23.09,0,0,0-5,4.75,20.39,20.39,0,0,0-3.24,5.95v31.89h-7.48V76.44h6.82v11.8a24.74,24.74,0,0,1,4.34-5.15,28.38,28.38,0,0,1,5.77-4,29.75,29.75,0,0,1,6.76-2.6,30.27,30.27,0,0,1,7.42-.9,18.22,18.22,0,0,1,8.08,1.6,13.37,13.37,0,0,1,5.22,4.5,19.6,19.6,0,0,1,2.86,7.1,45.47,45.47,0,0,1,.88,9.3Z"/><path class="cls-1" d="M352,129.52q-9,0-13.64-5.65T333.76,107V76.44h7.48v29.39q0,17.69,13.31,17.69a21.55,21.55,0,0,0,6.49-1,21.07,21.07,0,0,0,5.88-2.9,24.66,24.66,0,0,0,4.84-4.5,22.07,22.07,0,0,0,3.46-5.9V76.44h7.48v43.28q0,2.8,2.75,2.8v6a26.83,26.83,0,0,1-3.08.3,6.89,6.89,0,0,1-4.34-1.4,4.26,4.26,0,0,1-1.81-3.5v-7.2A26.42,26.42,0,0,1,366,126.18,29.57,29.57,0,0,1,352,129.52Z"/><path class="cls-1" d="M427.23,126c-.44.2-1.08.47-1.92.8s-1.81.67-2.91,1a36.36,36.36,0,0,1-3.74.9,23.46,23.46,0,0,1-4.4.4,17.47,17.47,0,0,1-4.62-.6,11.13,11.13,0,0,1-3.85-1.85,9.26,9.26,0,0,1-2.64-3.15,9.39,9.39,0,0,1-1-4.4V81.84h-7.92v-5.4h7.92V58.85h7.48V76.44h13.2v5.4h-13.2v35.39a5.3,5.3,0,0,0,2.2,4.25,8.19,8.19,0,0,0,4.73,1.35,15.27,15.27,0,0,0,5.61-.95,25.7,25.7,0,0,0,3.08-1.35Z"/><path class="cls-1" d="M461.09,129.52a30.34,30.34,0,0,1-11.55-2.15,28.12,28.12,0,0,1-9.13-5.9,27.17,27.17,0,0,1-6-8.65,25.89,25.89,0,0,1-2.14-10.5A25.31,25.31,0,0,1,434.43,92a26.21,26.21,0,0,1,6-8.5,29.17,29.17,0,0,1,9.07-5.8,31.79,31.79,0,0,1,23,0,27.45,27.45,0,0,1,9,5.85,27.07,27.07,0,0,1,5.83,8.5,25.28,25.28,0,0,1,2.09,10.2c0,.53,0,1.07-.05,1.6a4.72,4.72,0,0,1-.17,1.1H440.2a20.33,20.33,0,0,0,2.14,7.75,21.85,21.85,0,0,0,4.62,6.15,20.42,20.42,0,0,0,6.49,4,21.26,21.26,0,0,0,7.86,1.45,22.62,22.62,0,0,0,5.61-.7,23.47,23.47,0,0,0,5.06-1.9,17.54,17.54,0,0,0,4.12-2.95,13.06,13.06,0,0,0,2.8-3.85l6.49,1.6a17.23,17.23,0,0,1-3.74,5.25,25.81,25.81,0,0,1-5.61,4.1,29,29,0,0,1-7,2.7A33,33,0,0,1,461.09,129.52Zm21.11-29.79a19.53,19.53,0,0,0-2.14-7.65,21,21,0,0,0-4.62-5.95,20.6,20.6,0,0,0-6.54-3.9,23.1,23.1,0,0,0-15.83,0,20.59,20.59,0,0,0-6.54,3.9,19.21,19.21,0,0,0-4.51,6,21,21,0,0,0-2,7.6Z"/><path class="cls-1" d="M251.91,225.89v-71H303v6.2H259.49v26.09h36.84V193H259.49v32.89Z"/><path class="cls-1" d="M314.36,162.92v-10h7.48v10Zm0,63V173.81h7.48v52.08Z"/><path class="cls-1" d="M338.22,152.92h7.48V214.1a5.93,5.93,0,0,0,1.76,4.55,7,7,0,0,0,4.95,1.65,16.32,16.32,0,0,0,2.86-.3,20.19,20.19,0,0,0,3.08-.8l1.32,5.5a26.53,26.53,0,0,1-5.11,1.3,32.78,32.78,0,0,1-5.22.5q-5.17,0-8.14-2.65a9.46,9.46,0,0,1-3-7.45Z"/><path class="cls-1" d="M367.25,152.92h7.48V214.1a5.93,5.93,0,0,0,1.76,4.55,7,7,0,0,0,4.95,1.65,16.33,16.33,0,0,0,2.86-.3,20.22,20.22,0,0,0,3.08-.8l1.32,5.5a26.55,26.55,0,0,1-5.11,1.3,32.77,32.77,0,0,1-5.22.5q-5.17,0-8.14-2.65a9.46,9.46,0,0,1-3-7.45Z"/><path class="cls-1" d="M421,226.89a30.35,30.35,0,0,1-11.55-2.15,28.1,28.1,0,0,1-9.13-5.9,27.15,27.15,0,0,1-6-8.65,25.88,25.88,0,0,1-2.14-10.5,25.3,25.3,0,0,1,2.14-10.35,26.19,26.19,0,0,1,6-8.5,29.17,29.17,0,0,1,9.07-5.8,31.79,31.79,0,0,1,23,0,27.46,27.46,0,0,1,9,5.85,27,27,0,0,1,5.83,8.5,25.27,25.27,0,0,1,2.09,10.2c0,.53,0,1.07-.05,1.6a4.72,4.72,0,0,1-.17,1.1H400.13a20.36,20.36,0,0,0,2.14,7.75,21.87,21.87,0,0,0,4.62,6.15,20.43,20.43,0,0,0,6.49,4,21.26,21.26,0,0,0,7.86,1.45,22.61,22.61,0,0,0,5.61-.7,23.46,23.46,0,0,0,5.06-1.9,17.53,17.53,0,0,0,4.12-2.95,13.08,13.08,0,0,0,2.8-3.85l6.49,1.6a17.24,17.24,0,0,1-3.74,5.25,25.79,25.79,0,0,1-5.61,4.1,29,29,0,0,1-7,2.7A33,33,0,0,1,421,226.89Zm21.11-29.79a19.51,19.51,0,0,0-2.14-7.65,21,21,0,0,0-4.62-5.95,20.6,20.6,0,0,0-6.54-3.9,23.09,23.09,0,0,0-15.83,0,20.58,20.58,0,0,0-6.54,3.9,19.22,19.22,0,0,0-4.51,6,21,21,0,0,0-2,7.6Z"/><path class="cls-1" d="M489.09,179.81a25.18,25.18,0,0,0-13.2,3.8,19.38,19.38,0,0,0-7.92,9.9v32.39H460.5V173.81h7v12.5a27.9,27.9,0,0,1,7.81-9.15,17,17,0,0,1,10.45-3.65h1.87a8.41,8.41,0,0,1,1.43.1Z"/><path class="cls-1" d="M127.22,140.47A128.12,128.12,0,0,1,174.48,149a116.48,116.48,0,0,1,38.17,24.15,112.47,112.47,0,0,1,25.71,37.13q9.35,21.55,9.35,47.52,0,27.53-10.13,50.11A114.8,114.8,0,0,1,210,346.37,126.17,126.17,0,0,1,169.28,371a139.94,139.94,0,0,1-49.85,8.83,141.28,141.28,0,0,1-37.65-4.93,125.27,125.27,0,0,1-33-14.28,134.85,134.85,0,0,1-27.26-22.33,116,116,0,0,1-20-29.08l23.37-17.66a114.13,114.13,0,0,0,39.73,41,103.09,103.09,0,0,0,55.31,15.58,97.7,97.7,0,0,0,35.83-6.49,87.8,87.8,0,0,0,29.08-18.43,84.68,84.68,0,0,0,19.47-28.56,92.55,92.55,0,0,0,7-36.35,88.64,88.64,0,0,0-6.75-35.05A81.58,81.58,0,0,0,185.9,196a84.69,84.69,0,0,0-27.78-17.66,93.53,93.53,0,0,0-34.53-6.23,103.56,103.56,0,0,0-46.48,10.65,88.68,88.68,0,0,0-35.05,30.9H9.34q.51-3.12,2.6-14t5.19-26q3.12-15.06,6.75-33.49t7.27-37.13Q40,59.46,50.36,6H228.48V38.68H76.85L51.4,171.11a92.68,92.68,0,0,1,33-22.59A111.14,111.14,0,0,1,127.22,140.47Z"/></svg>