<svg id="Layer_1" data-name="Layer 1" xmlns="http://www.w3.org/2000/svg" viewBox="0 0 150.44 459.57"><defs><style>.cls-1{fill:#af1c2e;}.cls-2{fill:#f6c9a5;}.cls-3{fill:#54280f;}.cls-4{fill:#a8885a;}.cls-5{fill:#cc2232;}.cls-6{fill:#e0ae8c;}.cls-7{fill:#47200d;}.cls-8{fill:#29252a;}.cls-9{fill:#fff;}.cls-10{fill:#f2f2f2;}.cls-11{fill:#ceccca;}</style></defs><title>Person</title><g id="Person"><path class="cls-1" d="M100.77,187.75s11.07,43.32,13.34,58.25c2.93,19.3,4,78.08,4,78.08h25.62s2.86-42.27-5.87-78.61c-3.56-14.83-8.36-37.13-19.23-47.94C111.31,190.28,100.77,187.75,100.77,187.75Z"/><path class="cls-2" d="M143.69,324.07s-3,22.88-14.35,26.28H118.59l-.52-26.28"/><path class="cls-1" d="M43.37,187.75S32.3,231.07,30,246c-2.93,19.3-4,78.08-4,78.08H.45s-2.85-42.27,5.87-78.61c3.56-14.83,8.36-37.13,19.23-47.94C32.83,190.28,43.37,187.75,43.37,187.75Z"/><path class="cls-2" d="M.45,324.07s3,22.88,14.35,26.28H25.55l.52-26.28"/><path class="cls-3" d="M139.82,89.65c0,36.79-30.28,55.27-67.65,55.27h0c-37.36,0-67-20.46-67-57.25L4.53,73.43c0-36.79,19.92-66.61,67.65-66.61h0c48.86,0,67.65,29.82,67.65,66.61Z"/><path class="cls-3" d="M66.07,6.82S90.35,6.25,94.62,0c0,0,1.65,4.71,0,6.82,0,0,6.82,1.14,7.24-3.41,0,0,2.42,4.23,0,8.08"/><path class="cls-4" d="M25.83,289.25l.61,114.31L25.83,435h33l-.71-100.9s5.54,3.41,16.88,3c14.22-.53,16.78-3,16.78-3L92.06,435h33l-.61-134.36"/><path class="cls-5" d="M101.86,187.75c16.34,26,22.58,112.89,22.58,112.89-39.11,24.16-98.33,3.3-98.33,3.3-4.31-74.88,17.26-116.18,17.26-116.18Z"/><path class="cls-2" d="M130.12,124.87c-8.52,33-25.25,50.9-57.1,50.9h0c-31.85,0-50.28-14.86-58.23-50.9V98.46c0-30.85,11.93-59.15,51.27-54.48l6.39-1.38c31.85,0,57.66,25,57.66,55.85Z"/><path class="cls-2" d="M26.72,117.6a11.93,11.93,0,0,1-11.93,11.93h0A11.93,11.93,0,0,1,2.86,117.6v-1.14a11.93,11.93,0,0,1,11.93-11.93h0a11.93,11.93,0,0,1,11.93,11.93Z"/><path class="cls-2" d="M142.06,117.6a11.93,11.93,0,0,1-11.93,11.93h0a11.93,11.93,0,0,1-11.93-11.93v-1.14a11.93,11.93,0,0,1,11.93-11.93h0a11.93,11.93,0,0,1,11.93,11.93Z"/><path class="cls-3" d="M113.68,66.63h0c9.52,9.07,5.93,19.5,7.64,47.28l5.92,6,8.56-44.06-20-41.62-46.59-6.6-33.39,7L8.4,67.89,17,119.19l6.69-7.84S18,78.52,25.23,65.76c2.93-5.15,88.56,25.22,88.45.87"/><path class="cls-6" d="M11.29,113.91a9.39,9.39,0,0,0-.36,3.95,7.33,7.33,0,0,0,.58,1.71c.13.31.31.61.47.95a8.17,8.17,0,0,1,.54,1.07,5.35,5.35,0,0,1-1.2-.35,5.61,5.61,0,0,1-1-.71A4.18,4.18,0,0,1,9,118.21a3.93,3.93,0,0,1,.44-2.65A3.61,3.61,0,0,1,11.29,113.91Z"/><path class="cls-6" d="M134.39,118.31a9.38,9.38,0,0,0,.36-3.95,7.34,7.34,0,0,0-.58-1.71c-.13-.31-.31-.61-.47-.95a8.16,8.16,0,0,1-.54-1.07,5.36,5.36,0,0,1,1.2.35,5.61,5.61,0,0,1,1,.71,4.18,4.18,0,0,1,1.31,2.31,3.93,3.93,0,0,1-.44,2.65A3.61,3.61,0,0,1,134.39,118.31Z"/><path class="cls-3" d="M58.82,435h-33S.3,439.43.45,457.16H58.82Z"/><rect class="cls-7" x="0.45" y="457.16" width="39.34" height="2.84"/><rect class="cls-7" x="47.18" y="457.16" width="11.65" height="2.84"/><path class="cls-3" d="M92.06,435h33s25.53,4.43,25.39,22.16H92.06Z"/><rect class="cls-7" x="111.09" y="457.16" width="39.34" height="2.84"/><rect class="cls-7" x="92.06" y="457.16" width="11.65" height="2.84"/><polygon class="cls-2" points="58.82 169.4 58.82 187.75 73.31 196.1 87.8 187.75 87.8 169.4 58.82 169.4"/><path class="cls-8" d="M51.72,108.2c0,1-1.14,1.81-2.56,1.81h0c-1.41,0-2.56-.81-2.56-1.81v-5.63c0-1,1.14-1.81,2.56-1.81h0c1.41,0,2.56.81,2.56,1.81Z"/><path class="cls-8" d="M97.17,108.2c0,1-1.15,1.81-2.56,1.81h0c-1.41,0-2.56-.81-2.56-1.81v-5.63c0-1,1.15-1.81,2.56-1.81h0c1.41,0,2.56.81,2.56,1.81Z"/><path class="cls-6" d="M66.07,124.8a28.49,28.49,0,0,0,3.26,1.9,8.15,8.15,0,0,0,3.21.86,2.55,2.55,0,0,0,.79,0,3.6,3.6,0,0,0,.79-.13l.79-.22c.25-.13.51-.25.78-.37a3.73,3.73,0,0,0,.78-.43l.79-.48c.51-.36,1-.76,1.6-1.11a12.19,12.19,0,0,1-.91,1.8,8.31,8.31,0,0,1-1.4,1.52,5.88,5.88,0,0,1-4.07,1.44,6.77,6.77,0,0,1-4-1.54A7.68,7.68,0,0,1,66.07,124.8Z"/><path class="cls-8" d="M56.27,143.2a42.14,42.14,0,0,0,8.32,4.12,26.76,26.76,0,0,0,8.72,1.57A25.26,25.26,0,0,0,82,147.32a52.89,52.89,0,0,0,8.35-4.11,22.77,22.77,0,0,1-7.4,6.25,20.32,20.32,0,0,1-9.65,2.43,21.72,21.72,0,0,1-17-8.69Z"/><path class="cls-9" d="M58.83,203.69s14.2,12,28.87-.27l-14.41-7.54Z"/><polygon class="cls-10" points="54.88 185.47 54.88 206.3 73.31 196.09 54.88 185.47"/><polygon class="cls-10" points="91.91 185.36 91.91 206.41 73.29 196.09 91.91 185.36"/><polygon class="cls-11" points="54.88 185.47 58.82 185.47 58.82 187.74 54.88 185.47"/><polygon class="cls-11" points="91.64 185.47 87.69 185.47 87.69 187.74 91.64 185.47"/></g></svg>