<svg id="Layer_1" data-name="Layer 1" xmlns="http://www.w3.org/2000/svg" viewBox="0 0 261.92 459.57"><defs><style>.cls-1{fill:#424242;}.cls-2{fill:#fafafa;stroke-width:20px;}.cls-2,.cls-3{stroke:#424242;stroke-miterlimit:10;}.cls-3{fill:none;stroke-width:25px;}.cls-4{fill:#af1c2e;}.cls-5{fill:#f6c9a5;}.cls-6{fill:#54280f;}.cls-7{fill:#a8885a;}.cls-8{fill:#cc2232;}.cls-9{fill:#e0ae8c;}.cls-10{fill:#47200d;}.cls-11{fill:#29252a;}.cls-12{fill:#fff;}.cls-13{fill:#f2f2f2;}.cls-14{fill:#ceccca;}</style></defs><title>Person_Bus_Stop</title><g id="Bus_Sign" data-name="Bus Sign"><path class="cls-1" d="M50.8,429.4h60.12a20,20,0,0,1,20,20v10.16a0,0,0,0,1,0,0H30.8a0,0,0,0,1,0,0V449.4A20,20,0,0,1,50.8,429.4Z"/><circle class="cls-2" cx="80.75" cy="78.93" r="67.44"/><line class="cls-3" x1="80.54" y1="148.61" x2="80.75" y2="459.57"/><g id="Bus"><path d="M47.77,91.53c0-4.55,0-9.11,0-13.66-.06-3.9.72-7.71,1.17-11.55.6-5.08,1.31-10.15,2-15.22a9,9,0,0,1,4.39-6.76,35.25,35.25,0,0,1,11.2-4,59.9,59.9,0,0,1,16.23-1.7,63.75,63.75,0,0,1,21,4.38,10.8,10.8,0,0,1,7.18,9.51c.81,7.55,1.9,15.07,2.86,22.61a10.74,10.74,0,0,1,.05,1.35q0,15.41,0,30.83c0,1.88,0,1.88-1.87,1.88-.83,0-1.66,0-2.48,0s-1.26.37-1.24,1.27c0,1.39,0,2.79,0,4.18a4.81,4.81,0,0,1-9.62,0q-.07-2.09,0-4.18c0-.89-.26-1.29-1.22-1.29q-16.54,0-33.08,0c-.93,0-1.28.33-1.25,1.26,0,1.35,0,2.71,0,4.06a4.85,4.85,0,0,1-9.67.51,31,31,0,0,1-.09-4.51c0-1-.35-1.38-1.33-1.32-.82.05-1.66,0-2.48,0-1.66,0-1.67,0-1.67-1.73Q47.76,99.49,47.77,91.53ZM80.83,77.63H104.2a10.59,10.59,0,0,0,1.35,0,2.49,2.49,0,0,0,2.26-2.85q-1.29-9.56-2.62-19.11c-.26-1.85-1-2.53-2.83-2.53q-21.56,0-43.12,0a2.43,2.43,0,0,0-2.79,2.45C55.6,61.69,54.78,67.84,54,74c-.35,2.6.53,3.64,3.17,3.64Zm0-28.16H84c3.76,0,7.52,0,11.28,0a2.13,2.13,0,0,0,2.41-2C98,45.52,97,44.31,95,44.3q-7.45,0-14.89,0c-4.59,0-9.18,0-13.76,0a2.16,2.16,0,0,0-2.47,2.4c-.07,1.92.72,2.76,2.67,2.77Zm22.52,49.21a4.78,4.78,0,0,0,4.93-4.78,4.86,4.86,0,1,0-4.93,4.78Zm-45.19,0a4.81,4.81,0,0,0,.11-9.62,4.82,4.82,0,0,0-4.92,4.82A4.76,4.76,0,0,0,58.13,98.68Z"/></g></g><g id="Person"><path class="cls-4" d="M212.25,187.75s11.07,43.32,13.34,58.25c2.93,19.3,4,78.08,4,78.08h25.62s2.86-42.27-5.87-78.61c-3.56-14.83-8.36-37.13-19.23-47.94C222.79,190.28,212.25,187.75,212.25,187.75Z"/><path class="cls-5" d="M255.17,324.07s-3,22.88-14.35,26.28H230.08l-.52-26.28"/><path class="cls-4" d="M154.85,187.75S143.78,231.07,141.52,246c-2.93,19.3-4,78.08-4,78.08H111.93s-2.85-42.27,5.87-78.61c3.56-14.83,8.36-37.13,19.23-47.94C144.31,190.28,154.85,187.75,154.85,187.75Z"/><path class="cls-5" d="M111.93,324.07s3,22.88,14.35,26.28H137l.52-26.28"/><path class="cls-6" d="M251.3,89.65c0,36.79-30.28,55.27-67.65,55.27h0c-37.36,0-67-20.46-67-57.25L116,73.43c0-36.79,19.92-66.61,67.65-66.61h0c48.86,0,67.65,29.82,67.65,66.61Z"/><path class="cls-6" d="M177.55,6.82S201.84,6.25,206.1,0c0,0,1.65,4.71,0,6.82,0,0,6.82,1.14,7.24-3.41,0,0,2.42,4.23,0,8.08"/><path class="cls-7" d="M137.31,289.25l.61,114.31L137.31,435h33l-.71-100.9s5.54,3.41,16.88,3c14.22-.53,16.78-3,16.78-3l.28,100.9h33l-.61-134.36"/><path class="cls-8" d="M213.34,187.75c16.34,26,22.58,112.89,22.58,112.89-39.11,24.16-98.33,3.3-98.33,3.3-4.31-74.88,17.26-116.18,17.26-116.18Z"/><path class="cls-5" d="M241.61,124.87c-8.52,33-25.25,50.9-57.1,50.9h0c-31.85,0-50.28-14.86-58.23-50.9V98.46c0-30.85,11.93-59.15,51.27-54.48l6.39-1.38c31.85,0,57.66,25,57.66,55.85Z"/><path class="cls-5" d="M138.21,117.6a11.93,11.93,0,0,1-11.93,11.93h0a11.93,11.93,0,0,1-11.93-11.93v-1.14a11.93,11.93,0,0,1,11.93-11.93h0a11.93,11.93,0,0,1,11.93,11.93Z"/><path class="cls-5" d="M253.54,117.6a11.93,11.93,0,0,1-11.93,11.93h0a11.93,11.93,0,0,1-11.93-11.93v-1.14a11.93,11.93,0,0,1,11.93-11.93h0a11.93,11.93,0,0,1,11.93,11.93Z"/><path class="cls-6" d="M225.17,66.63h0c9.52,9.07,5.93,19.5,7.64,47.28l5.92,6,8.56-44.06-20-41.62-46.59-6.6-33.39,7-27.4,33.25,8.65,51.3,6.69-7.84s-5.77-32.83,1.49-45.59c2.93-5.15,88.56,25.22,88.45.87"/><path class="cls-9" d="M122.78,113.91a9.39,9.39,0,0,0-.36,3.95,7.33,7.33,0,0,0,.58,1.71c.13.31.31.61.47.95a8.17,8.17,0,0,1,.54,1.07,5.35,5.35,0,0,1-1.2-.35,5.61,5.61,0,0,1-1-.71,4.18,4.18,0,0,1-1.3-2.31,3.93,3.93,0,0,1,.44-2.65A3.61,3.61,0,0,1,122.78,113.91Z"/><path class="cls-9" d="M245.87,118.31a9.38,9.38,0,0,0,.36-3.95,7.34,7.34,0,0,0-.58-1.71c-.13-.31-.31-.61-.47-.95a8.16,8.16,0,0,1-.54-1.07,5.36,5.36,0,0,1,1.2.35,5.61,5.61,0,0,1,1,.71A4.18,4.18,0,0,1,248.2,114a3.93,3.93,0,0,1-.44,2.65A3.61,3.61,0,0,1,245.87,118.31Z"/><path class="cls-6" d="M170.31,435h-33s-25.53,4.43-25.38,22.16h58.38Z"/><rect class="cls-10" x="111.93" y="457.16" width="39.34" height="2.84"/><rect class="cls-10" x="158.66" y="457.16" width="11.65" height="2.84"/><path class="cls-6" d="M203.54,435h33s25.53,4.43,25.39,22.16H203.54Z"/><rect class="cls-10" x="222.57" y="457.16" width="39.34" height="2.84"/><rect class="cls-10" x="203.54" y="457.16" width="11.65" height="2.84"/><polygon class="cls-5" points="170.31 169.4 170.31 187.75 184.79 196.1 199.28 187.75 199.28 169.4 170.31 169.4"/><path class="cls-11" d="M163.2,108.2c0,1-1.14,1.81-2.56,1.81h0c-1.41,0-2.56-.81-2.56-1.81v-5.63c0-1,1.14-1.81,2.56-1.81h0c1.41,0,2.56.81,2.56,1.81Z"/><path class="cls-11" d="M208.66,108.2c0,1-1.15,1.81-2.56,1.81h0c-1.41,0-2.56-.81-2.56-1.81v-5.63c0-1,1.15-1.81,2.56-1.81h0c1.41,0,2.56.81,2.56,1.81Z"/><path class="cls-9" d="M177.55,124.8a28.49,28.49,0,0,0,3.26,1.9,8.15,8.15,0,0,0,3.21.86,2.55,2.55,0,0,0,.79,0,3.6,3.6,0,0,0,.79-.13l.79-.22c.25-.13.51-.25.78-.37a3.73,3.73,0,0,0,.78-.43l.79-.48c.51-.36,1-.76,1.6-1.11a12.19,12.19,0,0,1-.91,1.8,8.31,8.31,0,0,1-1.4,1.52,5.88,5.88,0,0,1-4.07,1.44,6.77,6.77,0,0,1-4-1.54A7.68,7.68,0,0,1,177.55,124.8Z"/><path class="cls-11" d="M167.75,143.2a42.14,42.14,0,0,0,8.32,4.12,26.76,26.76,0,0,0,8.72,1.57,25.26,25.26,0,0,0,8.69-1.57,52.89,52.89,0,0,0,8.35-4.11,22.77,22.77,0,0,1-7.4,6.25,20.32,20.32,0,0,1-9.65,2.43,21.72,21.72,0,0,1-17-8.69Z"/><path class="cls-12" d="M170.31,203.69s14.2,12,28.87-.27l-14.41-7.54Z"/><polygon class="cls-13" points="166.36 185.47 166.36 206.3 184.79 196.09 166.36 185.47"/><polygon class="cls-13" points="203.4 185.36 203.4 206.41 184.77 196.09 203.4 185.36"/><polygon class="cls-14" points="166.36 185.47 170.31 185.47 170.31 187.74 166.36 185.47"/><polygon class="cls-14" points="203.12 185.47 199.17 185.47 199.17 187.74 203.12 185.47"/></g></svg>